<svg width="32" height="32" viewBox="0 0 32 32" fill="none" xmlns="http://www.w3.org/2000/svg">
<path d="M6 0H26C27.6548 0 29.0685 0.58631 30.2411 1.75893C31.4137 2.93155 32 4.34524 32 6V26C32 27.6548 31.4137 29.0685 30.2411 30.2411C29.0685 31.4137 27.6548 32 26 32H6C4.34524 32 2.93155 31.4137 1.75893 30.2411C0.58631 29.0685 0 27.6548 0 26V6C0 4.34524 0.58631 2.93155 1.75893 1.75893C2.93155 0.58631 4.34524 0 6 0ZM25.3214 5.33929H6.67857C6.30952 5.33929 5.99405 5.47024 5.73214 5.73214C5.47024 5.99405 5.33929 6.30952 5.33929 6.67857V9.33929C5.33929 9.70833 5.47024 10.0208 5.73214 10.2768C5.99405 10.5327 6.30952 10.6607 6.67857 10.6607H13.3393V25.3214C13.3393 25.6905 13.4702 26.006 13.7321 26.2679C13.994 26.5298 14.3095 26.6607 14.6786 26.6607H17.3393C17.7083 26.6607 18.0208 26.5298 18.2768 26.2679C18.5327 26.006 18.6607 25.6905 18.6607 25.3214V10.6607H25.3214C25.6905 10.6607 26.006 10.5327 26.2679 10.2768C26.5298 10.0208 26.6607 9.70833 26.6607 9.33929V6.67857C26.6607 6.30952 26.5298 5.99405 26.2679 5.73214C26.006 5.47024 25.6905 5.33929 25.3214 5.33929Z" fill="#FBFBFB"/>
</svg>
